<?xml version="1.0" encoding="UTF-8"?>
<svg width="1160px" height="600px" viewBox="0 0 1160 600" version="1.1" xmlns="http://www.w3.org/2000/svg" xmlns:xlink="http://www.w3.org/1999/xlink">
    <title>Artboard</title>
    <g id="Artboard" stroke="none" stroke-width="1" fill="none" fill-rule="evenodd">
        <g id="passive-components/Resistor" transform="translate(150.000000, 27.000000)">
            <polyline id="Path" stroke="#000000" stroke-linecap="square" points="5.96866306e-13 23 8.26666667 23.008 11.2 15 17.0666667 31 22.9333333 15 28.8 31 31.7333333 23 40 23"></polyline>
            <text id="Vaule" font-family="Futura-Medium, Futura" font-size="10" font-weight="400" letter-spacing="-0.000684444444"></text>
        </g>
        <g id="active-components/OP-Amp" transform="translate(320.000000, 40.000000)">
            <line x1="13" y1="45" x2="13" y2="49" id="Path" stroke="#000000" stroke-width="2" stroke-linecap="square"></line>
            <path d="M30.5,6.47230829 L58.7515834,54.5 L2.24841664,54.5 L30.5,6.47230829 Z" id="Triangle" stroke="#000000" stroke-width="2" transform="translate(30.500000, 30.000000) rotate(90.000000) translate(-30.500000, -30.000000) "></path>
            <line x1="11" y1="13" x2="15" y2="13" id="Path" stroke="#000000" stroke-width="2" stroke-linecap="square"></line>
            <line x1="5" y1="10" x2="4.54775106e-13" y2="10" id="Path" stroke="#000000"></line>
            <line x1="60" y1="30" x2="55" y2="30" id="Path-Copy" stroke="#000000"></line>
            <line x1="5" y1="50" x2="4.54775106e-13" y2="50" id="Path" stroke="#000000"></line>
            <line x1="11" y1="47" x2="15" y2="47" id="Path" stroke="#000000" stroke-width="2" stroke-linecap="square"></line>
            <text id="Model" font-family="Futura-Medium, Futura" font-size="10" font-weight="400" letter-spacing="-0.000684444444" fill="#000000">
                <tspan x="36.7900892" y="12">AMP</tspan>
            </text>
        </g>
        <polyline id="Line-4" stroke="#000000" stroke-linecap="square" points="190 50 220 50 220 90"></polyline>
        <polyline id="Line-4" stroke="#000000" stroke-linecap="square" points="220 150 220 200 50 200"></polyline>
        <polyline id="Line-4" stroke="#1F4769" stroke-linecap="square" transform="translate(155.000000, 175.000000) scale(-1, 1) translate(-155.000000, -175.000000) " points="130 120 180 120 180 230"></polyline>
        <line x1="220" y1="50" x2="320" y2="50" id="Line-4" stroke="#000000" stroke-linecap="square"></line>
        <polyline id="Line-4" stroke="#000000" stroke-linecap="square" points="50 90 50 50 150 50"></polyline>
        <line x1="280" y1="200" x2="330" y2="200" id="Line-4" stroke="#000000" stroke-linecap="square"></line>
        <path d="M220,200 C233.333333,200 240,200 240,200" id="Line-4" stroke="#000000" stroke-linecap="square"></path>
        <line x1="50" y1="150" x2="50" y2="240" id="Line-4" stroke="#1F4769" stroke-linecap="square"></line>
        <polyline id="Line-4" stroke="#000000" stroke-linecap="square" points="370 200 400 200 400 70"></polyline>
        <path id="Line-4" d="M600.5,69.5 L600.5,209.5 L648.591,209.5 L642.254869,205.935788 L641.819082,205.690657 L642.309343,204.819082 L642.745131,205.064212 L650.745131,209.564212 L651.519864,210 L650.745131,210.435788 L642.745131,214.935788 L642.309343,215.180918 L641.819082,214.309343 L642.254869,214.064212 L648.591,210.5 L599.5,210.5 L599.5,69.5 L600.5,69.5 Z" fill="#1F4769" fill-rule="nonzero"></path>
        <g id="basic-elements/Node" transform="translate(597.000000, 67.000000)" fill="#000000">
            <circle id="Oval" cx="3" cy="3" r="3"></circle>
        </g>
        <polyline id="Line-4" stroke="#1F4769" stroke-linecap="square" transform="translate(310.000000, 145.000000) scale(-1, 1) translate(-310.000000, -145.000000) " points="320 200 320 90 300 90"></polyline>
        <g id="passive-components/Resistor" transform="translate(240.000000, 177.000000)">
            <polyline id="Path" stroke="#000000" stroke-linecap="square" points="5.96866306e-13 23 8.26666667 23.008 11.2 15 17.0666667 31 22.9333333 15 28.8 31 31.7333333 23 40 23"></polyline>
            <text id="Vaule" font-family="Futura-Medium, Futura" font-size="10" font-weight="400" letter-spacing="-0.000684444444"></text>
        </g>
        <g id="passive-components/Resistor" transform="translate(330.000000, 177.000000)">
            <polyline id="Path" stroke="#000000" stroke-linecap="square" points="5.96866306e-13 23 8.26666667 23.008 11.2 15 17.0666667 31 22.9333333 15 28.8 31 31.7333333 23 40 23"></polyline>
            <text id="Vaule" font-family="Futura-Medium, Futura" font-size="10" font-weight="400" letter-spacing="-0.000684444444"></text>
        </g>
        <g id="basic-elements/Node" transform="translate(217.000000, 47.000000)" fill="#000000">
            <circle id="Oval" cx="3" cy="3" r="3"></circle>
        </g>
        <g id="basic-elements/Node" transform="translate(47.000000, 197.000000)" fill="#000000">
            <circle id="Oval" cx="3" cy="3" r="3"></circle>
        </g>
        <g id="basic-elements/Node" transform="translate(217.000000, 197.000000)" fill="#000000">
            <circle id="Oval" cx="3" cy="3" r="3"></circle>
        </g>
        <g id="basic-elements/Node" transform="translate(297.000000, 197.000000)" fill="#000000">
            <circle id="Oval" cx="3" cy="3" r="3"></circle>
        </g>
        <g id="basic-elements/Node" transform="translate(397.000000, 67.000000)" fill="#000000">
            <circle id="Oval" cx="3" cy="3" r="3"></circle>
        </g>
        <g id="power/GND" transform="translate(40.000000, 240.000000)" stroke="#000000">
            <polygon id="Triangle-2" transform="translate(10.000000, 14.000000) scale(1, -1) translate(-10.000000, -14.000000) " points="10 8 20 20 0 20"></polygon>
            <line x1="10" y1="0" x2="10" y2="7" id="Line" stroke-linecap="square"></line>
        </g>
        <text id="FET" font-family="Futura-Medium, Futura" font-size="11.9827584" font-weight="400" letter-spacing="-0.00800000038" fill="#071D41">
            <tspan x="182" y="166">FET</tspan>
        </text>
        <line x1="380" y1="70" x2="462" y2="70" id="Line-4" stroke="#000000" stroke-linecap="square"></line>
        <line x1="130" y1="230" x2="462" y2="230" id="Line-4" stroke="#000000" stroke-linecap="square"></line>
        <line x1="560" y1="70" x2="640" y2="70" id="Line-4" stroke="#000000" stroke-linecap="square"></line>
        <line x1="640" y1="70" x2="780" y2="70" id="Line-4" stroke="#000000" stroke-linecap="square"></line>
        <line x1="880" y1="180" x2="900" y2="180" id="Line-4" stroke="#000000" stroke-linecap="square"></line>
        <line x1="860" y1="220" x2="940" y2="220" id="Line-4" stroke="#000000" stroke-linecap="square"></line>
        <polyline id="Line-4" stroke="#000000" stroke-linecap="square" points="880 70 880 200 940 200"></polyline>
        <g id="passive-components/Resistor" transform="translate(900.000000, 157.000000)">
            <polyline id="Path" stroke="#000000" stroke-linecap="square" points="5.96866306e-13 23 8.26666667 23.008 11.2 15 17.0666667 31 22.9333333 15 28.8 31 31.7333333 23 40 23"></polyline>
            <text id="Vaule" font-family="Futura-Medium, Futura" font-size="10" font-weight="400" letter-spacing="-0.000684444444"></text>
        </g>
        <polyline id="Line-4" stroke="#000000" stroke-linecap="square" points="990 200 1030 200 1030 170"></polyline>
        <path id="Line-4" d="M567.690657,224.819082 L568.180918,225.690657 L567.745131,225.935788 L561.408,229.5 L650.5,229.5 L650.5,230.5 L561.408,230.5 L567.745131,234.064212 L568.180918,234.309343 L567.690657,235.180918 L567.254869,234.935788 L559.254869,230.435788 L558.480136,230 L559.254869,229.564212 L567.254869,225.064212 L567.690657,224.819082 Z" fill="#000000" fill-rule="nonzero"></path>
        <path id="Line-4" d="M1062.30934,64.8190816 L1062.74513,65.0642122 L1070.74513,69.5642122 L1071.51986,70 L1070.74513,70.4357878 L1062.74513,74.9357878 L1062.30934,75.1809184 L1061.81908,74.3093429 L1062.25487,74.0642122 L1068.589,70.5 L779.5,70.5 L779.5,69.5 L1068.593,69.5 L1062.25487,65.9357878 L1061.81908,65.6906571 L1062.30934,64.8190816 Z" fill="#000000" fill-rule="nonzero"></path>
        <text id="LIN" font-family="Futura-Medium, Futura" font-size="10" font-weight="400" letter-spacing="-0.00667625898" fill="#000000">
            <tspan x="8" y="124">LIN</tspan>
        </text>
        <g id="active-components/NJFET-Transistor" transform="translate(180.000000, 90.000000)">
            <polyline id="Stroke-5" stroke="#000000" stroke-linecap="round" points="22 38 40 38 40 60"></polyline>
            <polyline id="Stroke-7" stroke="#000000" stroke-linecap="square" points="22 22 40 22 40 -3.05311332e-16"></polyline>
            <line x1="16" y1="29.99906" x2="-2.16937579e-13" y2="29.99906" id="Stroke-9" stroke="#000000" stroke-linecap="square"></line>
            <line x1="22" y1="18" x2="22" y2="42" id="Stroke-3" stroke="#000000" stroke-linecap="round"></line>
            <polygon id="Triangle" fill="#000000" transform="translate(19.000000, 30.000000) rotate(90.000000) translate(-19.000000, -30.000000) " points="19 27 23 33 15 33"></polygon>
            <circle id="Oval" stroke="#000000" cx="30" cy="30" r="19.5"></circle>
            <text id="Model" font-family="Futura-Medium, Futura" font-size="10" font-weight="400" letter-spacing="-0.000684444444" fill="#000000">
                <tspan x="58.9489767" y="34">NJFET</tspan>
            </text>
        </g>
        <g id="power/Voltage-Source" transform="translate(34.000000, 90.000000)" stroke="#000000">
            <circle id="Oval" stroke-width="2" cx="16" cy="30" r="16"></circle>
            <polyline id="Shape" stroke-width="2" stroke-linejoin="round" points="6 31.0000093 6.03184713 30.9200092 6.06369427 30.8400184 6.0955414 30.7600463 6.12738854 30.6800929 6.15923567 30.6001768 6.1910828 30.5202981 6.22292994 30.4404662 6.25477707 30.3606903 6.2866242 30.2809798 6.31847134 30.2013393 6.35031847 30.121783 6.38216561 30.0423107 6.41401274 29.9629366 6.44585987 29.8836605 6.47770701 29.8045013 6.50955414 29.7254635 6.54140127 29.6465471 6.57324841 29.5677709 6.60509554 29.4891349 6.63694268 29.410653 6.66878981 29.3323253 6.70063694 29.2541704 6.73248408 29.1761837 6.76433121 29.0983838 6.79617834 29.0207755 6.82802548 28.9433634 6.85987261 28.8661522 6.89171975 28.7891605 6.92356688 28.7123884 6.95541401 28.6358452 6.98726115 28.5595356 7.01910828 28.4834735 7.05095541 28.4076591 7.08280255 28.3321063 7.11464968 28.2568197 7.14649682 28.1818088 7.17834395 28.1070828 7.21019108 28.0326418 7.24203822 27.9584951 7.27388535 27.8846567 7.30573248 27.8111267 7.33757962 27.737919 7.36942675 27.6650382 7.40127389 27.5924892 7.43312102 27.5202812 7.46496815 27.4484189 7.49681529 27.3769116 7.52866242 27.3057687 7.56050955 27.2349949 7.59235669 27.1645994 7.62420382 27.094587 7.65605096 27.0249624 7.68789809 26.9557348 7.71974522 26.8869137 7.75159236 26.8185036 7.78343949 26.750514 7.81528662 26.6829448 7.84713376 26.6158101 7.87898089 26.5491145 7.91082803 26.4828627 7.94267516 26.4170594 7.97452229 26.3517186 8.00636943 26.2868449 8.03821656 26.2224383 8.07006369 26.1585083 8.10191083 26.0950641 8.13375796 26.0321151 8.1656051 25.9696566 8.19745223 25.9077026 8.22929936 25.8462578 8.2611465 25.7853316 8.29299363 25.7249239 8.32484076 25.6650441 8.3566879 25.6056968 8.38853503 25.5468915 8.42038217 25.488628 8.4522293 25.4309158 8.48407643 25.3737642 8.51592357 25.3171731 8.5477707 25.261152 8.57961783 25.2057008 8.61146497 25.1508335 8.6433121 25.0965456 8.67515924 25.0428555 8.70700637 24.9897541 8.7388535 24.93726 8.77070064 24.8853686 8.80254777 24.8340891 8.8343949 24.7834262 8.86624204 24.7333846 8.89808917 24.6839691 8.92993631 24.6351842 8.96178344 24.5870393 8.99363057 24.5395344 9.02547771 24.4926741 9.05732484 24.4464633 9.08917197 24.4009111 9.12101911 24.3560176 9.15286624 24.3117921 9.18471338 24.26823 9.21656051 24.2253405 9.24840764 24.1831332 9.28025478 24.1416032 9.31210191 24.1007646 9.34394904 24.0606127 9.37579618 24.0211522 9.40764331 23.9823924 9.43949045 23.9443333 9.47133758 23.9069797 9.50318471 23.8703361 9.53503185 23.8344073 9.56687898 23.7991932 9.59872611 23.7646986 9.63057325 23.730928 9.66242038 23.6978862 9.69426752 23.6655731 9.72611465 23.6339935 9.75796178 23.6031473 9.78980892 23.5730439 9.82165605 23.5436833 9.85350318 23.5150701 9.88535032 23.4871997 9.91719745 23.4600861 9.94904459 23.4337246 9.98089172 23.4081198 10.0127389 23.3832719 10.044586 23.3591901 10.0764331 23.3358698 10.1082803 23.3133156 10.1401274 23.2915322 10.1719745 23.2705149 10.2038217 23.2502731 10.2356688 23.2308068 10.2675159 23.2121207 10.2993631 23.19421 10.3312102 23.1770794 10.3630573 23.160729 10.3949045 23.1451681 10.4267516 23.1303874 10.4585987 23.1163961 10.4904459 23.1031943 10.522293 23.0907821 10.5541401 23.0791593 10.5859873 23.0683306 10.6178344 23.0582915 10.6496815 23.0490465 10.6815287 23.0406004 10.7133758 23.0329484 10.7452229 23.0260952 10.7770701 23.0200362 10.8089172 23.0147761 10.8407643 23.0103148 10.8726115 23.0066523 10.9044586 23.0037886 10.9363057 23.0017238 10.9681529 23.0004625 11 23 11.0318471 23.0003364 11.0636943 23.0014715 11.0955414 23.0034056 11.1273885 23.0061431 11.1592357 23.0096794 11.1910828 23.01401 11.2229299 23.019144 11.2547771 23.0250768 11.2866242 23.0318039 11.3184713 23.0393297 11.3503185 23.0476497 11.3821656 23.0567639 11.4140127 23.0666769 11.4458599 23.0773794 11.477707 23.0888761 11.5095541 23.1011622 11.5414013 23.1142425 11.5732484 23.1281077 11.6050955 23.1427623 11.6369427 23.1582017 11.6687898 23.1744213 11.7006369 23.1914304 11.7324841 23.209215 11.7643312 23.2277797 11.7961783 23.2471245 11.8280255 23.2672402 11.8598726 23.2881313 11.8917197 23.3097932 11.9235669 23.332226 11.955414 23.3554249 11.9872611 23.3793852 12.0191083 23.4041117 12.0509554 23.4295949 12.0828025 23.455835 12.1146497 23.4828318 12.1464968 23.5105807 12.1783439 23.5390771 12.2101911 23.5683163 12.2420382 23.5983029 12.2738854 23.6290277 12.3057325 23.6604905 12.3375796 23.6926914 12.3694268 23.7256165 12.4012739 23.7592702 12.433121 23.7936528 12.4649682 23.8287501 12.4968153 23.8645668 12.5286624 23.9010982 12.5605096 23.9383397 12.5923567 23.9762867 12.6242038 24.0149343 12.656051 24.0542781 12.6878981 24.0943225 12.7197452 24.1350537 12.7515924 24.1764716 12.7834395 24.2185761 12.8152866 24.2613535 12.8471338 24.3048081 12.8789809 24.3489308 12.910828 24.3937169 12.9426752 24.4391663 12.9745223 24.4852698 13.0063694 24.5320272 13.0382166 24.5794293 13.0700637 24.6274761 13.1019108 24.6761583 13.133758 24.7254711 13.1656051 24.7754145 13.1974522 24.8259793 13.2292994 24.8771607 13.2611465 24.928954 13.2929936 24.9813547 13.3248408 25.034358 13.3566879 25.0879593 13.388535 25.1421492 13.4203822 25.196923 13.4522293 25.2522807 13.4840764 25.3082131 13.5159236 25.3647154 13.5477707 25.4217783 13.5796178 25.4794017 13.611465 25.5375717 13.6433121 25.596293 13.6751592 25.6555562 13.7070064 25.7153519 13.7388535 25.7756755 13.7707006 25.8365223 13.8025478 25.897883 13.8343949 25.9597576 13.866242 26.022132 13.8980892 26.0850063 13.9299363 26.1483711 13.9617834 26.2122264 13.9936306 26.2765535 14.0254777 26.3413571 14.0573248 26.4066232 14.089172 26.4723518 14.1210191 26.5385335 14.1528662 26.605159 14.1847134 26.6722237 14.2165605 26.7397228 14.2484076 26.807647 14.2802548 26.8759916 14.3121019 26.9447473 14.343949 27.0139095 14.3757962 27.0834688 14.4076433 27.1534204 14.4394904 27.2237598 14.4713376 27.2944729 14.5031847 27.3655551 14.5350318 27.4370063 14.566879 27.5088126 14.5987261 27.5809645 14.6305732 27.6534622 14.6624204 27.7262915 14.6942675 27.7994478 14.7261146 27.8729265 14.7579618 27.9467135 14.7898089 28.0208135 14.8216561 28.0952078 14.8535032 28.169887 14.8853503 28.2448559 14.9171975 28.3201004 14.9490446 28.3956112 14.9808917 28.4713789 15.0127389 28.5474036 15.044586 28.6236758 15.0764331 28.7001817 15.1082803 28.7769164 15.1401274 28.8538754 15.1719745 28.9310492 15.2038217 29.0084333 15.2356688 29.0860089 15.2675159 29.1637807 15.2993631 29.2417394 15.3312102 29.3198663 15.3630573 29.398166 15.3949045 29.4766245 15.4267516 29.5552372 15.4585987 29.63399 15.4904459 29.712883 15.522293 29.7919068 15.5541401 29.8710474 15.5859873 29.9503001 15.6178344 30.0296602 15.6496815 30.1091184 15.6815287 30.1886654 15.7133758 30.2682919 15.7452229 30.347993 15.7770701 30.4277549 15.8089172 30.5075775 15.8407643 30.5874515 15.8726115 30.6673629 15.9044586 30.7473117 15.9363057 30.8272838 15.9681529 30.9072699 16 30.9872701 16.0318471 31.0672655 16.0636943 31.147261 16.0955414 31.2272378 16.1273885 31.3071912 16.1592357 31.3871166 16.1910828 31.4670046 16.2229299 31.5468412 16.2547771 31.6266265 16.2866242 31.7063463 16.3184713 31.7860008 16.3503185 31.8655712 16.3821656 31.9450574 16.4140127 32.0244503 16.4458599 32.1037403 16.477707 32.1829183 16.5095541 32.2619748 16.5414013 32.3409098 16.5732484 32.4197093 16.6050955 32.4983688 16.6369427 32.5768787 16.6687898 32.6552298 16.7006369 32.7334127 16.7324841 32.8114227 16.7643312 32.8892553 16.7961783 32.9668963 16.8280255 33.0443411 16.8598726 33.1215804 16.8917197 33.1986094 16.9235669 33.2754189 16.955414 33.3519994 16.9872611 33.4283464 17.0191083 33.5044505 17.0509554 33.5803023 17.0828025 33.6558925 17.1146497 33.7312258 17.1464968 33.8062788 17.1783439 33.8810561 17.2101911 33.9555439 17.2420382 34.0297326 17.2738854 34.1036224 17.3057325 34.1771991 17.3375796 34.2504629 17.3694268 34.323395 17.4012739 34.3960001 17.433121 34.4682642 17.4649682 34.5401779 17.4968153 34.6117412 17.5286624 34.6829448 17.5605096 34.7537748 17.5923567 34.8242356 17.6242038 34.8943087 17.656051 34.9639941 17.6878981 35.0332871 17.7197452 35.1021689 17.7515924 35.1706491 17.7834395 35.2387041 17.8152866 35.3063433 17.8471338 35.3735434 17.8789809 35.4403138 17.910828 35.5066356 17.9426752 35.572509 17.9745223 35.6379246 18.0063694 35.7028731 18.0382166 35.7673543 18.0700637 35.8313591 18.1019108 35.8948827 18.133758 35.9579112 18.1656051 36.0204491 18.1974522 36.0824825 18.2292994 36.1440067 18.2611465 36.2050217 18.2929936 36.2655088 18.3248408 36.3254727 18.3566879 36.3849087 18.388535 36.4437981 18.4203822 36.5021457 18.4522293 36.5599467 18.4840764 36.6171917 18.5159236 36.6738715 18.5477707 36.7299814 18.5796178 36.7855214 18.611465 36.8404867 18.6433121 36.8948635 18.6751592 36.9486516 18.7070064 37.0018464 18.7388535 37.0544386 18.7707006 37.1064282 18.8025478 37.1578058 18.8343949 37.2085668 18.866242 37.2587064 18.8980892 37.3082201 18.9299363 37.3571078 18.9617834 37.4053555 18.9936306 37.4529631 19.0254777 37.4999261 19.0573248 37.5462351 19.089172 37.5918948 19.1210191 37.6368957 19.1528662 37.6812286 19.1847134 37.7248982 19.2165605 37.7678904 19.2484076 37.8102099 19.2802548 37.8518427 19.3121019 37.8927981 19.343949 37.9330574 19.3757962 37.97263 19.4076433 38.0114972 19.4394904 38.0496684 19.4713376 38.0871342 19.5031847 38.1238945 19.5350318 38.1599355 19.566879 38.1952663 19.5987261 38.2298731 19.6305732 38.2637605 19.6624204 38.2969191 19.6942675 38.3293489 19.7261146 38.3610453 19.7579618 38.3920083 19.7898089 38.4222285 19.8216561 38.4517106 19.8535032 38.4804405 19.8853503 38.5084278 19.9171975 38.5356628 19.9490446 38.5621458 19.9808917 38.587872 20.0127389 38.6128414 20.044586 38.6370446 20.0764331 38.6604864 20.1082803 38.6831621 20.1401274 38.7050716 20.1719745 38.7262057 20.2038217 38.7465736 20.2356688 38.7661613 20.2675159 38.7849736 20.2993631 38.8030105 20.3312102 38.8202625 20.3630573 38.8367343 20.3949045 38.852426 20.4267516 38.8673282 20.4585987 38.8814456 20.4904459 38.8947735 20.522293 38.907312 20.5541401 38.9190609 20.5859873 38.9300203 20.6178344 38.9401809 20.6496815 38.949552 20.6815287 38.9581243 20.7133758 38.9659071 20.7452229 38.9728864 20.7770701 38.9790715 20.8089172 38.9844578 20.8407643 38.9890452 20.8726115 38.9928385 20.9044586 38.9958283 20.9363057 38.9980193 20.9681529 38.9994067 21 39 21.0318471 38.9997898 21.0636943 38.9987807 21.0955414 38.9969728 21.1273885 38.9943661 21.1592357 38.9909559 21.1910828 38.9867515 21.2229299 38.9817436 21.2547771 38.9759416 21.2866242 38.9693407 21.3184713 38.961941 21.3503185 38.9537471 21.3821656 38.944759 21.4140127 38.9349721 21.4458599 38.9243958 21.477707 38.9130252 21.5095541 38.9008652 21.5414013 38.887911 21.5732484 38.874172 21.6050955 38.8596435 21.6369427 38.8443302 21.6687898 38.8282321 21.7006369 38.8113492 21.7324841 38.7936907 21.7643312 38.7752475 21.7961783 38.7560288 21.8280255 38.7360346 21.8598726 38.7152649 21.8917197 38.6937244 21.9235669 38.6714178 21.955414 38.6483404 21.9872611 38.6245015 22.0191083 38.5998965 22.0509554 38.5745301 22.0828025 38.5484115 22.1146497 38.5215361 22.1464968 38.4939086 22.1783439 38.465529 22.2101911 38.4364066 22.2420382 38.4065414 22.2738854 38.3759335 22.3057325 38.3445875 22.3375796 38.312508 22.3694268 38.2796951 22.4012739 38.2461534 22.433121 38.2118923 22.4649682 38.1769072 22.4968153 38.1412026 22.5286624 38.1047879 22.5605096 38.0676585 22.5923567 38.0298237 22.6242038 37.9912882 22.656051 37.9520519 22.6878981 37.9121196 22.7197452 37.8714958 22.7515924 37.8301901 22.7834395 37.7881976 22.8152866 37.7455231 22.8471338 37.7021758 22.8789809 37.6581606 22.910828 37.6134773 22.9426752 37.5681353 22.9745223 37.5221346 23.0063694 37.4754846 23.0382166 37.4281806 23.0700637 37.3802366 23.1019108 37.3316572 23.133758 37.2824425 23.1656051 37.2326019 23.1974522 37.1821352 23.2292994 37.1310519 23.2611465 37.0793566 23.2929936 37.0270494 23.3248408 36.9741442 23.3566879 36.920641 23.388535 36.8665399 23.4203822 36.8118595 23.4522293 36.7565952 23.4840764 36.7007516 23.5159236 36.6443427 23.5477707 36.5873686 23.5796178 36.5298339 23.611465 36.471748 23.6433121 36.4131155 23.6751592 36.3539364 23.7070064 36.2942294 23.7388535 36.2339852 23.7707006 36.1732225 23.8025478 36.1119412 23.8343949 36.0501507 23.866242 35.9878557 23.8980892 35.9250609 23.9299363 35.8617709 23.9617834 35.797995 23.9936306 35.7337426 24.0254777 35.6690137 24.0573248 35.6038224 24.089172 35.5381639 24.1210191 35.4720569 24.1528662 35.4055014 24.1847134 35.3385069 24.2165605 35.2710732 24.2484076 35.203219 24.2802548 35.1349398 24.3121019 35.0662495 24.343949 34.9971527 24.3757962 34.9276542 24.4076433 34.8577633 24.4394904 34.7874893 24.4713376 34.7168322 24.5031847 34.6458061 24.5350318 34.5744156 24.566879 34.5026654 24.5987261 34.4305695 24.6305732 34.3581279 24.6624204 34.28535 24.6942675 34.212245 24.7261146 34.1388178 24.7579618 34.0650775 24.7898089 33.9910289 24.8216561 33.9166813 24.8535032 33.8420441 24.8853503 33.7671219 24.9171975 33.6919195 24.9490446 33.6164507 24.9808917 33.540725 25.0127389 33.4647377 25.044586 33.3885075 25.0764331 33.3120391 25.1082803 33.2353371 25.1401274 33.1584108 25.1719745 33.0812743 25.2038217 33.0039229 25.2356688 32.9263753 25.2675159 32.8486362 25.2993631 32.7707103 25.3312102 32.6926068 25.3630573 32.6143351 25.3949045 32.5358999 25.4267516 32.4573106 25.4585987 32.3785764 25.4904459 32.2997068 25.522293 32.2207064 25.5541401 32.1415845 25.5859873 32.0623458 25.6178344 31.9830043 25.6496815 31.9035601 25.6815287 31.8240271 25.7133758 31.7444147 25.7452229 31.6647276 25.7770701 31.5849704 25.8089172 31.5051571 25.8407643 31.4252924 25.8726115 31.3453857 25.9044586 31.2654416 25.9363057 31.1854742 25.9681529 31.1054881 26 31.0254926"></polyline>
            <line x1="16" y1="14" x2="16" y2="3.49720253e-15" id="Line-3" stroke-linecap="square"></line>
            <line x1="16" y1="60" x2="16" y2="46" id="Line-3" stroke-linecap="square"></line>
        </g>
        <g id="active-components/ADC" transform="translate(460.000000, 40.000000)">
            <path d="M79.6598842,1 L98.8017984,30 L79.6598842,59 L1,59 L1,1 L79.6598842,1 Z" id="Rectangle" stroke="#000000" stroke-width="2" fill-opacity="0" fill="#FFFFFF" transform="translate(50.000000, 30.000000) scale(-1, 1) translate(-50.000000, -30.000000) "></path>
            <text id="ADC" font-family="Futura-Medium, Futura" font-size="11.9827584" font-weight="400" letter-spacing="-0.00800000038" fill="#000000">
                <tspan x="44" y="35">ADC</tspan>
            </text>
        </g>
        <g id="active-components/DAC" transform="translate(460.000000, 201.000000)">
            <path d="M79.6598842,1 L98.8017984,30 L79.6598842,59 L1,59 L1,1 L79.6598842,1 Z" id="Rectangle" stroke="#000000" stroke-width="2" fill-opacity="0" fill="#FFFFFF"></path>
            <text id="DAC" font-family="Futura-Medium, Futura" font-size="11.9827584" font-weight="400" letter-spacing="-0.00800000038" fill="#000000">
                <tspan x="34" y="35">DAC</tspan>
            </text>
        </g>
        <g id="passive-components/Resistor" transform="translate(150.000000, 317.000000)">
            <polyline id="Path" stroke="#000000" stroke-linecap="square" points="5.96866306e-13 23 8.26666667 23.008 11.2 15 17.0666667 31 22.9333333 15 28.8 31 31.7333333 23 40 23"></polyline>
            <text id="Vaule" font-family="Futura-Medium, Futura" font-size="10" font-weight="400" letter-spacing="-0.000684444444"></text>
        </g>
        <g id="active-components/OP-Amp" transform="translate(320.000000, 330.000000)">
            <line x1="13" y1="45" x2="13" y2="49" id="Path" stroke="#000000" stroke-width="2" stroke-linecap="square"></line>
            <path d="M30.5,6.47230829 L58.7515834,54.5 L2.24841664,54.5 L30.5,6.47230829 Z" id="Triangle" stroke="#000000" stroke-width="2" transform="translate(30.500000, 30.000000) rotate(90.000000) translate(-30.500000, -30.000000) "></path>
            <line x1="11" y1="13" x2="15" y2="13" id="Path" stroke="#000000" stroke-width="2" stroke-linecap="square"></line>
            <line x1="5" y1="10" x2="4.54775106e-13" y2="10" id="Path" stroke="#000000"></line>
            <line x1="60" y1="30" x2="55" y2="30" id="Path-Copy" stroke="#000000"></line>
            <line x1="5" y1="50" x2="4.54775106e-13" y2="50" id="Path" stroke="#000000"></line>
            <line x1="11" y1="47" x2="15" y2="47" id="Path" stroke="#000000" stroke-width="2" stroke-linecap="square"></line>
            <text id="Model" font-family="Futura-Medium, Futura" font-size="10" font-weight="400" letter-spacing="-0.000684444444" fill="#000000">
                <tspan x="36.7900892" y="12">AMP</tspan>
            </text>
        </g>
        <polyline id="Line-4" stroke="#000000" stroke-linecap="square" points="190 340 220 340 220 380"></polyline>
        <polyline id="Line-4" stroke="#000000" stroke-linecap="square" points="220 440 220 490 50 490"></polyline>
        <polyline id="Line-4" stroke="#1F4769" stroke-linecap="square" transform="translate(155.000000, 465.000000) scale(-1, 1) translate(-155.000000, -465.000000) " points="130 410 180 410 180 520"></polyline>
        <line x1="220" y1="340" x2="320" y2="340" id="Line-4" stroke="#000000" stroke-linecap="square"></line>
        <polyline id="Line-4" stroke="#000000" stroke-linecap="square" points="50 380 50 340 150 340"></polyline>
        <line x1="280" y1="490" x2="330" y2="490" id="Line-4" stroke="#000000" stroke-linecap="square"></line>
        <path d="M220,490 C233.333333,490 240,490 240,490" id="Line-4" stroke="#000000" stroke-linecap="square"></path>
        <line x1="50" y1="440" x2="50" y2="530" id="Line-4" stroke="#1F4769" stroke-linecap="square"></line>
        <polyline id="Line-4" stroke="#000000" stroke-linecap="square" points="370 490 400 490 400 360"></polyline>
        <polyline id="Line-4" stroke="#1F4769" stroke-linecap="square" transform="translate(310.000000, 435.000000) scale(-1, 1) translate(-310.000000, -435.000000) " points="320 490 320 380 300 380"></polyline>
        <g id="passive-components/Resistor" transform="translate(240.000000, 467.000000)">
            <polyline id="Path" stroke="#000000" stroke-linecap="square" points="5.96866306e-13 23 8.26666667 23.008 11.2 15 17.0666667 31 22.9333333 15 28.8 31 31.7333333 23 40 23"></polyline>
            <text id="Vaule" font-family="Futura-Medium, Futura" font-size="10" font-weight="400" letter-spacing="-0.000684444444"></text>
        </g>
        <g id="passive-components/Resistor" transform="translate(330.000000, 467.000000)">
            <polyline id="Path" stroke="#000000" stroke-linecap="square" points="5.96866306e-13 23 8.26666667 23.008 11.2 15 17.0666667 31 22.9333333 15 28.8 31 31.7333333 23 40 23"></polyline>
            <text id="Vaule" font-family="Futura-Medium, Futura" font-size="10" font-weight="400" letter-spacing="-0.000684444444"></text>
        </g>
        <g id="basic-elements/Node" transform="translate(217.000000, 337.000000)" fill="#000000">
            <circle id="Oval" cx="3" cy="3" r="3"></circle>
        </g>
        <g id="basic-elements/Node" transform="translate(47.000000, 487.000000)" fill="#000000">
            <circle id="Oval" cx="3" cy="3" r="3"></circle>
        </g>
        <g id="basic-elements/Node" transform="translate(217.000000, 487.000000)" fill="#000000">
            <circle id="Oval" cx="3" cy="3" r="3"></circle>
        </g>
        <g id="basic-elements/Node" transform="translate(297.000000, 487.000000)" fill="#000000">
            <circle id="Oval" cx="3" cy="3" r="3"></circle>
        </g>
        <g id="basic-elements/Node" transform="translate(397.000000, 357.000000)" fill="#000000">
            <circle id="Oval" cx="3" cy="3" r="3"></circle>
        </g>
        <g id="power/GND" transform="translate(40.000000, 530.000000)" stroke="#000000">
            <polygon id="Triangle-2" transform="translate(10.000000, 14.000000) scale(1, -1) translate(-10.000000, -14.000000) " points="10 8 20 20 0 20"></polygon>
            <line x1="10" y1="0" x2="10" y2="7" id="Line" stroke-linecap="square"></line>
        </g>
        <text id="FET" font-family="Futura-Medium, Futura" font-size="11.9827584" font-weight="400" letter-spacing="-0.00800000038" fill="#071D41">
            <tspan x="182" y="456">FET</tspan>
        </text>
        <line x1="380" y1="360" x2="462" y2="360" id="Line-4" stroke="#000000" stroke-linecap="square"></line>
        <line x1="130" y1="520" x2="462" y2="520" id="Line-4" stroke="#000000" stroke-linecap="square"></line>
        <text id="RIN" font-family="Futura-Medium, Futura" font-size="10" font-weight="400" letter-spacing="-0.00667625898" fill="#000000">
            <tspan x="8" y="414">RIN</tspan>
        </text>
        <g id="active-components/NJFET-Transistor" transform="translate(180.000000, 380.000000)">
            <polyline id="Stroke-5" stroke="#000000" stroke-linecap="round" points="22 38 40 38 40 60"></polyline>
            <polyline id="Stroke-7" stroke="#000000" stroke-linecap="square" points="22 22 40 22 40 -3.05311332e-16"></polyline>
            <line x1="16" y1="29.99906" x2="-2.16937579e-13" y2="29.99906" id="Stroke-9" stroke="#000000" stroke-linecap="square"></line>
            <line x1="22" y1="18" x2="22" y2="42" id="Stroke-3" stroke="#000000" stroke-linecap="round"></line>
            <polygon id="Triangle" fill="#000000" transform="translate(19.000000, 30.000000) rotate(90.000000) translate(-19.000000, -30.000000) " points="19 27 23 33 15 33"></polygon>
            <circle id="Oval" stroke="#000000" cx="30" cy="30" r="19.5"></circle>
            <text id="Model" font-family="Futura-Medium, Futura" font-size="10" font-weight="400" letter-spacing="-0.000684444444" fill="#000000">
                <tspan x="58.9489767" y="34">NJFET</tspan>
            </text>
        </g>
        <g id="power/Voltage-Source" transform="translate(34.000000, 380.000000)" stroke="#000000">
            <circle id="Oval" stroke-width="2" cx="16" cy="30" r="16"></circle>
            <polyline id="Shape" stroke-width="2" stroke-linejoin="round" points="6 31.0000093 6.03184713 30.9200092 6.06369427 30.8400184 6.0955414 30.7600463 6.12738854 30.6800929 6.15923567 30.6001768 6.1910828 30.5202981 6.22292994 30.4404662 6.25477707 30.3606903 6.2866242 30.2809798 6.31847134 30.2013393 6.35031847 30.121783 6.38216561 30.0423107 6.41401274 29.9629366 6.44585987 29.8836605 6.47770701 29.8045013 6.50955414 29.7254635 6.54140127 29.6465471 6.57324841 29.5677709 6.60509554 29.4891349 6.63694268 29.410653 6.66878981 29.3323253 6.70063694 29.2541704 6.73248408 29.1761837 6.76433121 29.0983838 6.79617834 29.0207755 6.82802548 28.9433634 6.85987261 28.8661522 6.89171975 28.7891605 6.92356688 28.7123884 6.95541401 28.6358452 6.98726115 28.5595356 7.01910828 28.4834735 7.05095541 28.4076591 7.08280255 28.3321063 7.11464968 28.2568197 7.14649682 28.1818088 7.17834395 28.1070828 7.21019108 28.0326418 7.24203822 27.9584951 7.27388535 27.8846567 7.30573248 27.8111267 7.33757962 27.737919 7.36942675 27.6650382 7.40127389 27.5924892 7.43312102 27.5202812 7.46496815 27.4484189 7.49681529 27.3769116 7.52866242 27.3057687 7.56050955 27.2349949 7.59235669 27.1645994 7.62420382 27.094587 7.65605096 27.0249624 7.68789809 26.9557348 7.71974522 26.8869137 7.75159236 26.8185036 7.78343949 26.750514 7.81528662 26.6829448 7.84713376 26.6158101 7.87898089 26.5491145 7.91082803 26.4828627 7.94267516 26.4170594 7.97452229 26.3517186 8.00636943 26.2868449 8.03821656 26.2224383 8.07006369 26.1585083 8.10191083 26.0950641 8.13375796 26.0321151 8.1656051 25.9696566 8.19745223 25.9077026 8.22929936 25.8462578 8.2611465 25.7853316 8.29299363 25.7249239 8.32484076 25.6650441 8.3566879 25.6056968 8.38853503 25.5468915 8.42038217 25.488628 8.4522293 25.4309158 8.48407643 25.3737642 8.51592357 25.3171731 8.5477707 25.261152 8.57961783 25.2057008 8.61146497 25.1508335 8.6433121 25.0965456 8.67515924 25.0428555 8.70700637 24.9897541 8.7388535 24.93726 8.77070064 24.8853686 8.80254777 24.8340891 8.8343949 24.7834262 8.86624204 24.7333846 8.89808917 24.6839691 8.92993631 24.6351842 8.96178344 24.5870393 8.99363057 24.5395344 9.02547771 24.4926741 9.05732484 24.4464633 9.08917197 24.4009111 9.12101911 24.3560176 9.15286624 24.3117921 9.18471338 24.26823 9.21656051 24.2253405 9.24840764 24.1831332 9.28025478 24.1416032 9.31210191 24.1007646 9.34394904 24.0606127 9.37579618 24.0211522 9.40764331 23.9823924 9.43949045 23.9443333 9.47133758 23.9069797 9.50318471 23.8703361 9.53503185 23.8344073 9.56687898 23.7991932 9.59872611 23.7646986 9.63057325 23.730928 9.66242038 23.6978862 9.69426752 23.6655731 9.72611465 23.6339935 9.75796178 23.6031473 9.78980892 23.5730439 9.82165605 23.5436833 9.85350318 23.5150701 9.88535032 23.4871997 9.91719745 23.4600861 9.94904459 23.4337246 9.98089172 23.4081198 10.0127389 23.3832719 10.044586 23.3591901 10.0764331 23.3358698 10.1082803 23.3133156 10.1401274 23.2915322 10.1719745 23.2705149 10.2038217 23.2502731 10.2356688 23.2308068 10.2675159 23.2121207 10.2993631 23.19421 10.3312102 23.1770794 10.3630573 23.160729 10.3949045 23.1451681 10.4267516 23.1303874 10.4585987 23.1163961 10.4904459 23.1031943 10.522293 23.0907821 10.5541401 23.0791593 10.5859873 23.0683306 10.6178344 23.0582915 10.6496815 23.0490465 10.6815287 23.0406004 10.7133758 23.0329484 10.7452229 23.0260952 10.7770701 23.0200362 10.8089172 23.0147761 10.8407643 23.0103148 10.8726115 23.0066523 10.9044586 23.0037886 10.9363057 23.0017238 10.9681529 23.0004625 11 23 11.0318471 23.0003364 11.0636943 23.0014715 11.0955414 23.0034056 11.1273885 23.0061431 11.1592357 23.0096794 11.1910828 23.01401 11.2229299 23.019144 11.2547771 23.0250768 11.2866242 23.0318039 11.3184713 23.0393297 11.3503185 23.0476497 11.3821656 23.0567639 11.4140127 23.0666769 11.4458599 23.0773794 11.477707 23.0888761 11.5095541 23.1011622 11.5414013 23.1142425 11.5732484 23.1281077 11.6050955 23.1427623 11.6369427 23.1582017 11.6687898 23.1744213 11.7006369 23.1914304 11.7324841 23.209215 11.7643312 23.2277797 11.7961783 23.2471245 11.8280255 23.2672402 11.8598726 23.2881313 11.8917197 23.3097932 11.9235669 23.332226 11.955414 23.3554249 11.9872611 23.3793852 12.0191083 23.4041117 12.0509554 23.4295949 12.0828025 23.455835 12.1146497 23.4828318 12.1464968 23.5105807 12.1783439 23.5390771 12.2101911 23.5683163 12.2420382 23.5983029 12.2738854 23.6290277 12.3057325 23.6604905 12.3375796 23.6926914 12.3694268 23.7256165 12.4012739 23.7592702 12.433121 23.7936528 12.4649682 23.8287501 12.4968153 23.8645668 12.5286624 23.9010982 12.5605096 23.9383397 12.5923567 23.9762867 12.6242038 24.0149343 12.656051 24.0542781 12.6878981 24.0943225 12.7197452 24.1350537 12.7515924 24.1764716 12.7834395 24.2185761 12.8152866 24.2613535 12.8471338 24.3048081 12.8789809 24.3489308 12.910828 24.3937169 12.9426752 24.4391663 12.9745223 24.4852698 13.0063694 24.5320272 13.0382166 24.5794293 13.0700637 24.6274761 13.1019108 24.6761583 13.133758 24.7254711 13.1656051 24.7754145 13.1974522 24.8259793 13.2292994 24.8771607 13.2611465 24.928954 13.2929936 24.9813547 13.3248408 25.034358 13.3566879 25.0879593 13.388535 25.1421492 13.4203822 25.196923 13.4522293 25.2522807 13.4840764 25.3082131 13.5159236 25.3647154 13.5477707 25.4217783 13.5796178 25.4794017 13.611465 25.5375717 13.6433121 25.596293 13.6751592 25.6555562 13.7070064 25.7153519 13.7388535 25.7756755 13.7707006 25.8365223 13.8025478 25.897883 13.8343949 25.9597576 13.866242 26.022132 13.8980892 26.0850063 13.9299363 26.1483711 13.9617834 26.2122264 13.9936306 26.2765535 14.0254777 26.3413571 14.0573248 26.4066232 14.089172 26.4723518 14.1210191 26.5385335 14.1528662 26.605159 14.1847134 26.6722237 14.2165605 26.7397228 14.2484076 26.807647 14.2802548 26.8759916 14.3121019 26.9447473 14.343949 27.0139095 14.3757962 27.0834688 14.4076433 27.1534204 14.4394904 27.2237598 14.4713376 27.2944729 14.5031847 27.3655551 14.5350318 27.4370063 14.566879 27.5088126 14.5987261 27.5809645 14.6305732 27.6534622 14.6624204 27.7262915 14.6942675 27.7994478 14.7261146 27.8729265 14.7579618 27.9467135 14.7898089 28.0208135 14.8216561 28.0952078 14.8535032 28.169887 14.8853503 28.2448559 14.9171975 28.3201004 14.9490446 28.3956112 14.9808917 28.4713789 15.0127389 28.5474036 15.044586 28.6236758 15.0764331 28.7001817 15.1082803 28.7769164 15.1401274 28.8538754 15.1719745 28.9310492 15.2038217 29.0084333 15.2356688 29.0860089 15.2675159 29.1637807 15.2993631 29.2417394 15.3312102 29.3198663 15.3630573 29.398166 15.3949045 29.4766245 15.4267516 29.5552372 15.4585987 29.63399 15.4904459 29.712883 15.522293 29.7919068 15.5541401 29.8710474 15.5859873 29.9503001 15.6178344 30.0296602 15.6496815 30.1091184 15.6815287 30.1886654 15.7133758 30.2682919 15.7452229 30.347993 15.7770701 30.4277549 15.8089172 30.5075775 15.8407643 30.5874515 15.8726115 30.6673629 15.9044586 30.7473117 15.9363057 30.8272838 15.9681529 30.9072699 16 30.9872701 16.0318471 31.0672655 16.0636943 31.147261 16.0955414 31.2272378 16.1273885 31.3071912 16.1592357 31.3871166 16.1910828 31.4670046 16.2229299 31.5468412 16.2547771 31.6266265 16.2866242 31.7063463 16.3184713 31.7860008 16.3503185 31.8655712 16.3821656 31.9450574 16.4140127 32.0244503 16.4458599 32.1037403 16.477707 32.1829183 16.5095541 32.2619748 16.5414013 32.3409098 16.5732484 32.4197093 16.6050955 32.4983688 16.6369427 32.5768787 16.6687898 32.6552298 16.7006369 32.7334127 16.7324841 32.8114227 16.7643312 32.8892553 16.7961783 32.9668963 16.8280255 33.0443411 16.8598726 33.1215804 16.8917197 33.1986094 16.9235669 33.2754189 16.955414 33.3519994 16.9872611 33.4283464 17.0191083 33.5044505 17.0509554 33.5803023 17.0828025 33.6558925 17.1146497 33.7312258 17.1464968 33.8062788 17.1783439 33.8810561 17.2101911 33.9555439 17.2420382 34.0297326 17.2738854 34.1036224 17.3057325 34.1771991 17.3375796 34.2504629 17.3694268 34.323395 17.4012739 34.3960001 17.433121 34.4682642 17.4649682 34.5401779 17.4968153 34.6117412 17.5286624 34.6829448 17.5605096 34.7537748 17.5923567 34.8242356 17.6242038 34.8943087 17.656051 34.9639941 17.6878981 35.0332871 17.7197452 35.1021689 17.7515924 35.1706491 17.7834395 35.2387041 17.8152866 35.3063433 17.8471338 35.3735434 17.8789809 35.4403138 17.910828 35.5066356 17.9426752 35.572509 17.9745223 35.6379246 18.0063694 35.7028731 18.0382166 35.7673543 18.0700637 35.8313591 18.1019108 35.8948827 18.133758 35.9579112 18.1656051 36.0204491 18.1974522 36.0824825 18.2292994 36.1440067 18.2611465 36.2050217 18.2929936 36.2655088 18.3248408 36.3254727 18.3566879 36.3849087 18.388535 36.4437981 18.4203822 36.5021457 18.4522293 36.5599467 18.4840764 36.6171917 18.5159236 36.6738715 18.5477707 36.7299814 18.5796178 36.7855214 18.611465 36.8404867 18.6433121 36.8948635 18.6751592 36.9486516 18.7070064 37.0018464 18.7388535 37.0544386 18.7707006 37.1064282 18.8025478 37.1578058 18.8343949 37.2085668 18.866242 37.2587064 18.8980892 37.3082201 18.9299363 37.3571078 18.9617834 37.4053555 18.9936306 37.4529631 19.0254777 37.4999261 19.0573248 37.5462351 19.089172 37.5918948 19.1210191 37.6368957 19.1528662 37.6812286 19.1847134 37.7248982 19.2165605 37.7678904 19.2484076 37.8102099 19.2802548 37.8518427 19.3121019 37.8927981 19.343949 37.9330574 19.3757962 37.97263 19.4076433 38.0114972 19.4394904 38.0496684 19.4713376 38.0871342 19.5031847 38.1238945 19.5350318 38.1599355 19.566879 38.1952663 19.5987261 38.2298731 19.6305732 38.2637605 19.6624204 38.2969191 19.6942675 38.3293489 19.7261146 38.3610453 19.7579618 38.3920083 19.7898089 38.4222285 19.8216561 38.4517106 19.8535032 38.4804405 19.8853503 38.5084278 19.9171975 38.5356628 19.9490446 38.5621458 19.9808917 38.587872 20.0127389 38.6128414 20.044586 38.6370446 20.0764331 38.6604864 20.1082803 38.6831621 20.1401274 38.7050716 20.1719745 38.7262057 20.2038217 38.7465736 20.2356688 38.7661613 20.2675159 38.7849736 20.2993631 38.8030105 20.3312102 38.8202625 20.3630573 38.8367343 20.3949045 38.852426 20.4267516 38.8673282 20.4585987 38.8814456 20.4904459 38.8947735 20.522293 38.907312 20.5541401 38.9190609 20.5859873 38.9300203 20.6178344 38.9401809 20.6496815 38.949552 20.6815287 38.9581243 20.7133758 38.9659071 20.7452229 38.9728864 20.7770701 38.9790715 20.8089172 38.9844578 20.8407643 38.9890452 20.8726115 38.9928385 20.9044586 38.9958283 20.9363057 38.9980193 20.9681529 38.9994067 21 39 21.0318471 38.9997898 21.0636943 38.9987807 21.0955414 38.9969728 21.1273885 38.9943661 21.1592357 38.9909559 21.1910828 38.9867515 21.2229299 38.9817436 21.2547771 38.9759416 21.2866242 38.9693407 21.3184713 38.961941 21.3503185 38.9537471 21.3821656 38.944759 21.4140127 38.9349721 21.4458599 38.9243958 21.477707 38.9130252 21.5095541 38.9008652 21.5414013 38.887911 21.5732484 38.874172 21.6050955 38.8596435 21.6369427 38.8443302 21.6687898 38.8282321 21.7006369 38.8113492 21.7324841 38.7936907 21.7643312 38.7752475 21.7961783 38.7560288 21.8280255 38.7360346 21.8598726 38.7152649 21.8917197 38.6937244 21.9235669 38.6714178 21.955414 38.6483404 21.9872611 38.6245015 22.0191083 38.5998965 22.0509554 38.5745301 22.0828025 38.5484115 22.1146497 38.5215361 22.1464968 38.4939086 22.1783439 38.465529 22.2101911 38.4364066 22.2420382 38.4065414 22.2738854 38.3759335 22.3057325 38.3445875 22.3375796 38.312508 22.3694268 38.2796951 22.4012739 38.2461534 22.433121 38.2118923 22.4649682 38.1769072 22.4968153 38.1412026 22.5286624 38.1047879 22.5605096 38.0676585 22.5923567 38.0298237 22.6242038 37.9912882 22.656051 37.9520519 22.6878981 37.9121196 22.7197452 37.8714958 22.7515924 37.8301901 22.7834395 37.7881976 22.8152866 37.7455231 22.8471338 37.7021758 22.8789809 37.6581606 22.910828 37.6134773 22.9426752 37.5681353 22.9745223 37.5221346 23.0063694 37.4754846 23.0382166 37.4281806 23.0700637 37.3802366 23.1019108 37.3316572 23.133758 37.2824425 23.1656051 37.2326019 23.1974522 37.1821352 23.2292994 37.1310519 23.2611465 37.0793566 23.2929936 37.0270494 23.3248408 36.9741442 23.3566879 36.920641 23.388535 36.8665399 23.4203822 36.8118595 23.4522293 36.7565952 23.4840764 36.7007516 23.5159236 36.6443427 23.5477707 36.5873686 23.5796178 36.5298339 23.611465 36.471748 23.6433121 36.4131155 23.6751592 36.3539364 23.7070064 36.2942294 23.7388535 36.2339852 23.7707006 36.1732225 23.8025478 36.1119412 23.8343949 36.0501507 23.866242 35.9878557 23.8980892 35.9250609 23.9299363 35.8617709 23.9617834 35.797995 23.9936306 35.7337426 24.0254777 35.6690137 24.0573248 35.6038224 24.089172 35.5381639 24.1210191 35.4720569 24.1528662 35.4055014 24.1847134 35.3385069 24.2165605 35.2710732 24.2484076 35.203219 24.2802548 35.1349398 24.3121019 35.0662495 24.343949 34.9971527 24.3757962 34.9276542 24.4076433 34.8577633 24.4394904 34.7874893 24.4713376 34.7168322 24.5031847 34.6458061 24.5350318 34.5744156 24.566879 34.5026654 24.5987261 34.4305695 24.6305732 34.3581279 24.6624204 34.28535 24.6942675 34.212245 24.7261146 34.1388178 24.7579618 34.0650775 24.7898089 33.9910289 24.8216561 33.9166813 24.8535032 33.8420441 24.8853503 33.7671219 24.9171975 33.6919195 24.9490446 33.6164507 24.9808917 33.540725 25.0127389 33.4647377 25.044586 33.3885075 25.0764331 33.3120391 25.1082803 33.2353371 25.1401274 33.1584108 25.1719745 33.0812743 25.2038217 33.0039229 25.2356688 32.9263753 25.2675159 32.8486362 25.2993631 32.7707103 25.3312102 32.6926068 25.3630573 32.6143351 25.3949045 32.5358999 25.4267516 32.4573106 25.4585987 32.3785764 25.4904459 32.2997068 25.522293 32.2207064 25.5541401 32.1415845 25.5859873 32.0623458 25.6178344 31.9830043 25.6496815 31.9035601 25.6815287 31.8240271 25.7133758 31.7444147 25.7452229 31.6647276 25.7770701 31.5849704 25.8089172 31.5051571 25.8407643 31.4252924 25.8726115 31.3453857 25.9044586 31.2654416 25.9363057 31.1854742 25.9681529 31.1054881 26 31.0254926"></polyline>
            <line x1="16" y1="14" x2="16" y2="3.49720253e-15" id="Line-3" stroke-linecap="square"></line>
            <line x1="16" y1="60" x2="16" y2="46" id="Line-3" stroke-linecap="square"></line>
        </g>
        <rect id="Rectangle" stroke="#000000" stroke-width="2" fill-opacity="0" fill="#FFFFFF" x="651" y="191" width="208" height="58"></rect>
        <text id="Control-Voltage-Gene" font-family="Futura-Medium, Futura" font-size="14" font-weight="400" letter-spacing="-0.00934676258" fill="#071D41">
            <tspan x="670" y="225">Control Voltage Generator</tspan>
        </text>
        <g id="measurements/VU-Meter" transform="translate(991.000000, 125.000000)">
            <rect id="Rectangle" stroke="#000000" stroke-width="2" x="1" y="1" width="78" height="43"></rect>
            <rect id="Rectangle" stroke="#000000" x="1.5" y="1.5" width="77" height="42"></rect>
            <g id="Input" transform="translate(34.470652, 21.000000)">
                <text id="T" font-family="Futura-Medium, Futura" font-size="14" font-weight="400"></text>
                <rect id="Rectangle" fill="#000000" x="0" y="19" width="10" height="5"></rect>
            </g>
            <line x1="42.5522642" y1="13.5027391" x2="42.5522642" y2="17.5027391" id="Line-4" stroke="#000000" stroke-linecap="square" transform="translate(42.552264, 15.502739) rotate(6.000000) translate(-42.552264, -15.502739) "></line>
            <line x1="51.4845221" y1="14.0788897" x2="51.4845221" y2="18.0788897" id="Line-4" stroke="#CD0000" stroke-linecap="square" transform="translate(51.484522, 16.078890) rotate(23.000000) translate(-51.484522, -16.078890) "></line>
            <line x1="60.3146715" y1="14.611739" x2="60.3146715" y2="19.611739" id="Line-4" stroke="#CD0000" stroke-linecap="square" transform="translate(60.314671, 17.111739) rotate(33.000000) translate(-60.314671, -17.111739) "></line>
            <path d="M14.5,20.5 C22.6666667,18.4654992 30.8333333,17.4482488 39,17.4482488 C47.1666667,17.4482488 55.3333333,18.4654992 63.5,20.5" id="Line" stroke="#000000" stroke-linecap="square"></path>
            <path d="M51.15,17.27 C53.9422259,17.6088592 58.1305648,18.3847085 63.7150166,19.5975478" id="Line" stroke="#CD0000" stroke-linecap="square"></path>
            <path d="M50.9349834,18.1724522 C53.7272093,18.5113115 57.9155482,19.2871607 63.5,20.5" id="Line" stroke="#CD0000" stroke-linecap="square"></path>
            <line x1="24.3107308" y1="12.9244707" x2="23.6476055" y2="44.0885733" id="Line-4" stroke="#000000" stroke-linecap="square" transform="translate(23.979168, 28.506522) rotate(-39.000000) translate(-23.979168, -28.506522) "></line>
            <line x1="35.3468963" y1="13.7891895" x2="35.3732307" y2="17.4881855" id="Line-4" stroke="#000000" stroke-linecap="square" transform="translate(35.360064, 15.638687) rotate(-5.000000) translate(-35.360064, -15.638687) "></line>
            <line x1="23.4360313" y1="14.6608815" x2="23.4806353" y2="18.5733412" id="Line-4" stroke="#000000" stroke-linecap="square" transform="translate(23.458333, 16.617111) rotate(-27.000000) translate(-23.458333, -16.617111) "></line>
            <line x1="29.4877194" y1="14.0749885" x2="29.5432364" y2="17.8813778" id="Line-4" stroke="#000000" stroke-linecap="square" transform="translate(29.515478, 15.978183) rotate(344.000000) translate(-29.515478, -15.978183) "></line>
            <text id="VU" font-family="Futura-Medium, Futura" font-size="6" font-weight="400" letter-spacing="-0.000410666675" fill="#000000">
                <tspan x="35" y="29">VU</tspan>
            </text>
        </g>
        <g id="switches/TPST" transform="translate(939.000000, 177.000000)" stroke="#000000">
            <line x1="0" y1="23" x2="10" y2="23" id="Line" stroke-linecap="square" transform="translate(5.000000, 23.000000) scale(-1, 1) translate(-5.000000, -23.000000) "></line>
            <line x1="40" y1="23" x2="50" y2="23" id="Line" stroke-linecap="square" transform="translate(45.000000, 23.000000) scale(-1, 1) translate(-45.000000, -23.000000) "></line>
            <circle id="Oval-2" cx="13" cy="23" r="3"></circle>
            <circle id="Oval-2" cx="37" cy="23" r="3"></circle>
            <path d="M13.1560055,34 C13.1560055,34 21.4893388,34.0522049 38.1560055,34.1566147" id="Line-2" stroke-linecap="round" transform="translate(25.656005, 34.078307) scale(-1, 1) rotate(45.000000) translate(-25.656005, -34.078307) "></path>
            <circle id="Oval-2" cx="13" cy="43" r="3"></circle>
            <line x1="0" y1="43" x2="10" y2="43" id="Line" stroke-linecap="square" transform="translate(5.000000, 43.000000) scale(-1, 1) translate(-5.000000, -43.000000) "></line>
            <circle id="Oval-2" cx="13" cy="3" r="3"></circle>
            <line x1="0" y1="3" x2="10" y2="3" id="Line" stroke-linecap="square" transform="translate(5.000000, 3.000000) scale(-1, 1) translate(-5.000000, -3.000000) "></line>
        </g>
        <g id="basic-elements/Node" transform="translate(877.000000, 67.000000)" fill="#000000">
            <circle id="Oval" cx="3" cy="3" r="3"></circle>
        </g>
        <g id="basic-elements/Node" transform="translate(877.000000, 177.000000)" fill="#000000">
            <circle id="Oval" cx="3" cy="3" r="3"></circle>
        </g>
        <text id="+8-+4-GR" font-family="Futura-Medium, Futura" font-size="14" font-weight="400" fill="#000000">
            <tspan x="957" y="247">+8</tspan>
            <tspan x="957" y="266">+4</tspan>
            <tspan x="957" y="285">GR</tspan>
        </text>
        <path id="Line-4" d="M600.5,359.5 L600.5,499.5 L648.591,499.5 L642.254869,495.935788 L641.819082,495.690657 L642.309343,494.819082 L642.745131,495.064212 L650.745131,499.564212 L651.519864,500 L650.745131,500.435788 L642.745131,504.935788 L642.309343,505.180918 L641.819082,504.309343 L642.254869,504.064212 L648.591,500.5 L599.5,500.5 L599.5,359.5 L600.5,359.5 Z" fill="#1F4769" fill-rule="nonzero"></path>
        <g id="basic-elements/Node" transform="translate(597.000000, 357.000000)" fill="#000000">
            <circle id="Oval" cx="3" cy="3" r="3"></circle>
        </g>
        <line x1="880" y1="470" x2="900" y2="470" id="Line-4" stroke="#000000" stroke-linecap="square"></line>
        <line x1="860" y1="510" x2="940" y2="510" id="Line-4" stroke="#000000" stroke-linecap="square"></line>
        <polyline id="Line-4" stroke="#000000" stroke-linecap="square" points="880 360 880 490 940 490"></polyline>
        <g id="passive-components/Resistor" transform="translate(900.000000, 447.000000)">
            <polyline id="Path" stroke="#000000" stroke-linecap="square" points="5.96866306e-13 23 8.26666667 23.008 11.2 15 17.0666667 31 22.9333333 15 28.8 31 31.7333333 23 40 23"></polyline>
            <text id="Vaule" font-family="Futura-Medium, Futura" font-size="10" font-weight="400" letter-spacing="-0.000684444444"></text>
        </g>
        <polyline id="Line-4" stroke="#000000" stroke-linecap="square" points="990 490 1030 490 1030 460"></polyline>
        <path id="Line-4" d="M567.690657,514.819082 L568.180918,515.690657 L567.745131,515.935788 L561.408,519.5 L650.5,519.5 L650.5,520.5 L561.408,520.5 L567.745131,524.064212 L568.180918,524.309343 L567.690657,525.180918 L567.254869,524.935788 L559.254869,520.435788 L558.480136,520 L559.254869,519.564212 L567.254869,515.064212 L567.690657,514.819082 Z" fill="#000000" fill-rule="nonzero"></path>
        <path id="Line-4" d="M1062.30934,354.819082 L1062.74513,355.064212 L1070.74513,359.564212 L1071.51986,360 L1070.74513,360.435788 L1062.74513,364.935788 L1062.30934,365.180918 L1061.81908,364.309343 L1062.25487,364.064212 L1068.591,360.5 L779.5,360.5 L779.5,359.5 L1068.591,359.5 L1062.25487,355.935788 L1061.81908,355.690657 L1062.30934,354.819082 Z" fill="#000000" fill-rule="nonzero"></path>
        <g id="active-components/ADC" transform="translate(460.000000, 330.000000)">
            <path d="M79.6598842,1 L98.8017984,30 L79.6598842,59 L1,59 L1,1 L79.6598842,1 Z" id="Rectangle" stroke="#000000" stroke-width="2" fill-opacity="0" fill="#FFFDFD" transform="translate(50.000000, 30.000000) scale(-1, 1) translate(-50.000000, -30.000000) "></path>
            <text id="ADC" font-family="Futura-Medium, Futura" font-size="11.9827584" font-weight="400" letter-spacing="-0.00800000038" fill="#000000">
                <tspan x="44" y="35">ADC</tspan>
            </text>
        </g>
        <g id="active-components/DAC" transform="translate(460.000000, 491.000000)">
            <path d="M79.6598842,1 L98.8017984,30 L79.6598842,59 L1,59 L1,1 L79.6598842,1 Z" id="Rectangle" stroke="#000000" stroke-width="2" fill-opacity="0" fill="#FFFFFF"></path>
            <text id="DAC" font-family="Futura-Medium, Futura" font-size="11.9827584" font-weight="400" letter-spacing="-0.00800000038" fill="#000000">
                <tspan x="34" y="35">DAC</tspan>
            </text>
        </g>
        <rect id="Rectangle" stroke="#000000" stroke-width="2" fill-opacity="0" fill="#FFFFFF" x="651" y="481" width="208" height="58"></rect>
        <text id="Control-Voltage-Gene" font-family="Futura-Medium, Futura" font-size="14" font-weight="400" letter-spacing="-0.00934676258" fill="#071D41">
            <tspan x="670" y="515">Control Voltage Generator</tspan>
        </text>
        <g id="measurements/VU-Meter" transform="translate(991.000000, 415.000000)">
            <rect id="Rectangle" stroke="#000000" stroke-width="2" x="1" y="1" width="78" height="43"></rect>
            <rect id="Rectangle" stroke="#000000" x="1.5" y="1.5" width="77" height="42"></rect>
            <g id="Input" transform="translate(34.470652, 21.000000)">
                <text id="T" font-family="Futura-Medium, Futura" font-size="14" font-weight="400"></text>
                <rect id="Rectangle" fill="#000000" x="0" y="19" width="10" height="5"></rect>
            </g>
            <line x1="42.5522642" y1="13.5027391" x2="42.5522642" y2="17.5027391" id="Line-4" stroke="#000000" stroke-linecap="square" transform="translate(42.552264, 15.502739) rotate(6.000000) translate(-42.552264, -15.502739) "></line>
            <line x1="51.4845221" y1="14.0788897" x2="51.4845221" y2="18.0788897" id="Line-4" stroke="#CD0000" stroke-linecap="square" transform="translate(51.484522, 16.078890) rotate(23.000000) translate(-51.484522, -16.078890) "></line>
            <line x1="60.3146715" y1="14.611739" x2="60.3146715" y2="19.611739" id="Line-4" stroke="#CD0000" stroke-linecap="square" transform="translate(60.314671, 17.111739) rotate(33.000000) translate(-60.314671, -17.111739) "></line>
            <path d="M14.5,20.5 C22.6666667,18.4654992 30.8333333,17.4482488 39,17.4482488 C47.1666667,17.4482488 55.3333333,18.4654992 63.5,20.5" id="Line" stroke="#000000" stroke-linecap="square"></path>
            <path d="M51.15,17.27 C53.9422259,17.6088592 58.1305648,18.3847085 63.7150166,19.5975478" id="Line" stroke="#CD0000" stroke-linecap="square"></path>
            <path d="M50.9349834,18.1724522 C53.7272093,18.5113115 57.9155482,19.2871607 63.5,20.5" id="Line" stroke="#CD0000" stroke-linecap="square"></path>
            <line x1="24.3107308" y1="12.9244707" x2="23.6476055" y2="44.0885733" id="Line-4" stroke="#000000" stroke-linecap="square" transform="translate(23.979168, 28.506522) rotate(-39.000000) translate(-23.979168, -28.506522) "></line>
            <line x1="35.3468963" y1="13.7891895" x2="35.3732307" y2="17.4881855" id="Line-4" stroke="#000000" stroke-linecap="square" transform="translate(35.360064, 15.638687) rotate(-5.000000) translate(-35.360064, -15.638687) "></line>
            <line x1="23.4360313" y1="14.6608815" x2="23.4806353" y2="18.5733412" id="Line-4" stroke="#000000" stroke-linecap="square" transform="translate(23.458333, 16.617111) rotate(-27.000000) translate(-23.458333, -16.617111) "></line>
            <line x1="29.4877194" y1="14.0749885" x2="29.5432364" y2="17.8813778" id="Line-4" stroke="#000000" stroke-linecap="square" transform="translate(29.515478, 15.978183) rotate(344.000000) translate(-29.515478, -15.978183) "></line>
            <text id="VU" font-family="Futura-Medium, Futura" font-size="6" font-weight="400" letter-spacing="-0.000410666675" fill="#000000">
                <tspan x="35" y="29">VU</tspan>
            </text>
        </g>
        <g id="switches/TPST" transform="translate(939.000000, 467.000000)" stroke="#000000">
            <line x1="0" y1="23" x2="10" y2="23" id="Line" stroke-linecap="square" transform="translate(5.000000, 23.000000) scale(-1, 1) translate(-5.000000, -23.000000) "></line>
            <line x1="40" y1="23" x2="50" y2="23" id="Line" stroke-linecap="square" transform="translate(45.000000, 23.000000) scale(-1, 1) translate(-45.000000, -23.000000) "></line>
            <circle id="Oval-2" cx="13" cy="23" r="3"></circle>
            <circle id="Oval-2" cx="37" cy="23" r="3"></circle>
            <path d="M13.1560055,34 C13.1560055,34 21.4893388,34.0522049 38.1560055,34.1566147" id="Line-2" stroke-linecap="round" transform="translate(25.656005, 34.078307) scale(-1, 1) rotate(45.000000) translate(-25.656005, -34.078307) "></path>
            <circle id="Oval-2" cx="13" cy="43" r="3"></circle>
            <line x1="0" y1="43" x2="10" y2="43" id="Line" stroke-linecap="square" transform="translate(5.000000, 43.000000) scale(-1, 1) translate(-5.000000, -43.000000) "></line>
            <circle id="Oval-2" cx="13" cy="3" r="3"></circle>
            <line x1="0" y1="3" x2="10" y2="3" id="Line" stroke-linecap="square" transform="translate(5.000000, 3.000000) scale(-1, 1) translate(-5.000000, -3.000000) "></line>
        </g>
        <g id="basic-elements/Node" transform="translate(877.000000, 357.000000)" fill="#000000">
            <circle id="Oval" cx="3" cy="3" r="3"></circle>
        </g>
        <g id="basic-elements/Node" transform="translate(877.000000, 467.000000)" fill="#000000">
            <circle id="Oval" cx="3" cy="3" r="3"></circle>
        </g>
        <text id="+8-+4-GR" font-family="Futura-Medium, Futura" font-size="14" font-weight="400" fill="#000000">
            <tspan x="957" y="537">+8</tspan>
            <tspan x="957" y="556">+4</tspan>
            <tspan x="957" y="575">GR</tspan>
        </text>
        <line x1="560" y1="360" x2="640" y2="360" id="Line-4" stroke="#000000" stroke-linecap="square"></line>
        <line x1="640" y1="360" x2="780" y2="360" id="Line-4" stroke="#000000" stroke-linecap="square"></line>
    </g>
</svg>