<?xml version="1.0" encoding="UTF-8"?>
<svg width="590px" height="630px" viewBox="0 0 590 630" version="1.1" xmlns="http://www.w3.org/2000/svg" xmlns:xlink="http://www.w3.org/1999/xlink">
    <title>Artboard</title>
    <g id="Artboard" stroke="none" stroke-width="1" fill="none" fill-rule="evenodd">
        <g id="icons/Keyboard" transform="translate(80.000000, 494.000000)">
            <rect id="Rectangle" stroke="#000000" x="0.5" y="0.5" width="120" height="65"></rect>
            <rect id="Rectangle" stroke="#000000" x="1.5" y="1.5" width="16" height="63"></rect>
            <rect id="Rectangle" stroke="#000000" x="18.5" y="1.5" width="16" height="63"></rect>
            <rect id="Rectangle" stroke="#000000" x="35.5" y="1.5" width="16" height="63"></rect>
            <rect id="Rectangle" stroke="#000000" x="52.5" y="1.5" width="16" height="63"></rect>
            <rect id="Rectangle" stroke="#000000" x="69.5" y="1.5" width="16" height="63"></rect>
            <rect id="Rectangle" stroke="#000000" x="86.5" y="1.5" width="16" height="63"></rect>
            <rect id="Rectangle" stroke="#000000" x="103.5" y="1.5" width="16" height="63"></rect>
            <path d="M13,1 L23,1 L23,40 C23,40.5522847 22.5522847,41 22,41 L14,41 C13.4477153,41 13,40.5522847 13,40 L13,1 L13,1 Z" id="Rectangle" fill="#000000"></path>
            <path d="M30,1 L40,1 L40,40 C40,40.5522847 39.5522847,41 39,41 L31,41 C30.4477153,41 30,40.5522847 30,40 L30,1 L30,1 Z" id="Rectangle" fill="#000000"></path>
            <path d="M64,1 L74,1 L74,40 C74,40.5522847 73.5522847,41 73,41 L65,41 C64.4477153,41 64,40.5522847 64,40 L64,1 L64,1 Z" id="Rectangle" fill="#000000"></path>
            <path d="M81,1 L91,1 L91,40 C91,40.5522847 90.5522847,41 90,41 L82,41 C81.4477153,41 81,40.5522847 81,40 L81,1 L81,1 Z" id="Rectangle" fill="#000000"></path>
            <path d="M98,1 L108,1 L108,40 C108,40.5522847 107.552285,41 107,41 L99,41 C98.4477153,41 98,40.5522847 98,40 L98,1 L98,1 Z" id="Rectangle" fill="#000000"></path>
        </g>
        <g id="icons/Computer" transform="translate(225.000000, 97.000000)">
            <rect id="Rectangle" stroke="#000000" stroke-width="4" x="8" y="0" width="104" height="60"></rect>
            <rect id="Rectangle" stroke="#000000" stroke-width="4" x="0" y="60" width="120" height="12"></rect>
            <path d="M96,32.0014386 L88.0016873,27.3824205 L88.0016873,30.6774032 L47.1200902,30.6774032 L55.0801993,22.2673887 C55.757635,21.7243791 56.6439919,21.3434572 57.5557647,21.322357 C61.2442566,21.322357 63.4346533,21.3213979 64.2409264,21.3197994 C64.7874466,22.8768957 66.2554903,24.0007992 68.0007104,24.0007992 C70.2085306,24.0007992 72.0002664,22.2092033 72.0002664,20.0005595 C72.0002664,17.7909565 70.2086904,16 68.0007104,16 C66.2554903,16 64.7874466,17.1232641 64.2409264,18.6790817 L57.6340902,18.6779627 C55.8434733,18.6779627 53.9671779,19.6603992 52.7729537,20.8121166 C52.7457796,20.8412093 44.3256281,29.7346095 44.3256281,29.7346095 C43.649631,30.2768198 42.7637536,30.655344 41.8526202,30.6770835 L37.2278988,30.6770835 C36.6148818,27.6218754 33.9169679,25.3200392 30.6806859,25.3200392 C26.9909153,25.3200392 24,28.3109877 24,31.9996803 C24,35.6894919 26.9909153,38.6806002 30.6806859,38.6806002 C33.9176073,38.6806002 36.6155212,36.3768458 37.2285382,33.3190801 L41.7722166,33.3190801 C41.7838855,33.3190801 41.7955545,33.3197195 41.8073832,33.3190801 L51.8571847,33.3190801 C52.7665598,33.3422583 53.6513183,33.721262 54.326676,34.2641117 C54.326676,34.2641117 62.7449093,43.1568725 62.7709645,43.1856455 C63.9658281,44.3378424 65.8429227,45.3196395 67.6338594,45.3196395 L74.0009236,45.3182009 L74.0009236,48 L82.0013143,48 L82.0013143,40.0003197 L74.0009236,40.0003197 L74.0009236,42.6786021 C74.0009236,42.6786021 72.3239585,42.675565 67.5558535,42.675565 C66.6439209,42.6546247 65.7566048,42.2741823 65.0794888,41.7311727 L57.1176215,33.3195596 L88.0016873,33.3195596 L88.0016873,36.6198174 L96,32.0014386 Z" id="path1334" fill="#000000" fill-rule="nonzero"></path>
        </g>
        <g id="icons/MIDI-Jack-male" transform="translate(181.000000, 458.500000) scale(1, -1) translate(-181.000000, -458.500000) translate(172.000000, 435.000000)">
            <rect id="Rectangle" fill="#000000" x="0" y="7" width="18" height="30" rx="1"></rect>
            <polygon id="Rectangle" fill="#000000" points="2 36 16 36 15 47 3 47"></polygon>
            <line x1="2.5" y1="36.5" x2="15.5" y2="36.5" id="Line-3" stroke="#2C2C2C" stroke-linecap="square"></line>
            <rect id="Rectangle" fill="#D8D8D8" x="2" y="0" width="14" height="7"></rect>
        </g>
        <polyline id="Line" stroke="#000000" stroke-width="3" stroke-linecap="square" points="240 220 240 290 180 390 180 440"></polyline>
        <polyline id="Line" stroke="#000000" stroke-width="3" stroke-linecap="square" points="260.5 365.5 260.5 409.5 300 491.862524"></polyline>
        <polyline id="Line" stroke="#000000" stroke-width="3" stroke-linecap="square" points="517 529 517 489 537 449 537 359"></polyline>
        <polyline id="Line" stroke="#000000" stroke-width="3" stroke-linecap="square" points="467 419 467 379 487 339 487 249"></polyline>
        <g id="icons/3.5mm-TRS-jack" transform="translate(508.102125, 539.854150) rotate(35.000000) translate(-508.102125, -539.854150) translate(504.102125, 523.032200)" fill="#000000">
            <g id="Group" transform="translate(0.000000, -0.000000)">
                <path d="M2.86261139,31.2398907 C3.13033831,31.0682788 3.31191997,30.7925712 2.83738129,30.5120563 C2.51943168,30.3270941 2.29233227,30.4797622 2.32186825,29.9929532 L5.76352123,30 C5.76877597,30.484556 5.57338162,30.3084709 5.24804012,30.51 C4.75626058,30.8171355 4.92661261,31.0820592 5.18389019,31.24 C5.44081625,31.4007175 6.09839406,31.9897697 5.50149318,32.6 C4.94402481,33.1703756 4.73511713,33.2596333 4,33.6439007 C3.28634418,33.296118 3.00662229,33.1417015 2.4782192,32.6013541 C1.90838178,32.0182034 2.59409371,31.4131921 2.86261139,31.2398907 Z" id="Fill-1734-Copy" stroke="#000000" stroke-width="0.5"></path>
                <rect id="Rectangle" x="2" y="18.5" width="4" height="8"></rect>
                <path d="M1,0 L7,0 C7.55228475,-1.01453063e-16 8,0.44771525 8,1 L8,16 C8,16.5522847 7.55228475,17 7,17 L6,17 L6,17 L6,18 L2,18 L2,17 L1,17 C0.44771525,17 6.76353751e-17,16.5522847 0,16 L0,1 C-6.76353751e-17,0.44771525 0.44771525,1.01453063e-16 1,0 Z" id="Rectangle"></path>
                <rect id="Rectangle" x="2" y="27" width="4" height="2"></rect>
            </g>
        </g>
        <polyline id="Line" stroke="#000000" stroke-width="3" stroke-linecap="square" points="330.5 220.5 330.5 289.5 360 350 360 400"></polyline>
        <polyline id="Line" stroke="#000000" stroke-width="3" stroke-linecap="square" transform="translate(425.250000, 265.250000) scale(-1, 1) translate(-425.250000, -265.250000) " points="410.5 170.5 410.5 269.5 440 330 440 360"></polyline>
        <polyline id="Line" stroke="#000000" stroke-width="3" stroke-linecap="square" points="90.5 170.5 90.5 209.5 120 270 360 270 390 330 390 360"></polyline>
        <g id="icons/Speaker" transform="translate(60.000000, 66.000000)" fill="#000000">
            <text id="Speaker" font-family="ArialMT, Arial" font-size="10" font-weight="normal" letter-spacing="-0.000684444443">
                <tspan x="11.3793487" y="9">Speaker</tspan>
            </text>
            <rect id="Rectangle" x="0" y="14" width="60" height="90" rx="5"></rect>
            <circle id="Oval" stroke="#FFFFFF" stroke-width="10" cx="30" cy="73" r="15"></circle>
            <circle id="Oval" stroke="#FFFFFF" stroke-width="5" cx="30" cy="33" r="7.5"></circle>
        </g>
        <g id="icons/Speaker" transform="translate(410.000000, 66.000000)" fill="#000000">
            <text id="Speaker" font-family="ArialMT, Arial" font-size="10" font-weight="normal" letter-spacing="-0.000684444443">
                <tspan x="11.3793487" y="9">Speaker</tspan>
            </text>
            <rect id="Rectangle" x="0" y="14" width="60" height="90" rx="5"></rect>
            <circle id="Oval" stroke="#FFFFFF" stroke-width="10" cx="30" cy="73" r="15"></circle>
            <circle id="Oval" stroke="#FFFFFF" stroke-width="5" cx="30" cy="33" r="7.5"></circle>
        </g>
        <g id="icons/USB-Type-C-Jack" transform="translate(355.000000, 396.000000)">
            <path d="M9.5,14.5 L9.5,23 L2,23.5 L1.5,14.5 L9.5,14.5 Z" id="Rectangle" stroke="#979797" fill="#FFFFFF"></path>
            <rect id="Rectangle" fill="#000000" x="0" y="0" width="11" height="15"></rect>
        </g>
        <g id="icons/USB-Type-A" transform="translate(320.000000, 192.000000)">
            <path d="M19,9 L19,26 C19,26.2761424 18.8880712,26.5261424 18.7071068,26.7071068 C18.5261424,26.8880712 18.2761424,27 18,27 L2,27 C1.72385763,27 1.47385763,26.8880712 1.29289322,26.7071068 C1.11192881,26.5261424 1,26.2761424 1,26 L1,9 L19,9 Z" id="Rectangle" stroke="#000000" stroke-width="2" fill="#000000"></path>
            <rect id="Rectangle" fill="#D8D8D8" x="2" y="0" width="16" height="8"></rect>
            <line x1="5" y1="3" x2="5" y2="5" id="Line-3" stroke="#000000" stroke-width="2" stroke-linecap="square"></line>
            <line x1="15" y1="3" x2="15" y2="5" id="Line-3" stroke="#000000" stroke-width="2" stroke-linecap="square"></line>
        </g>
        <g id="icons/MIDI-Jack-Female" transform="translate(231.000000, 177.000000)">
            <rect id="Rectangle" fill="#000000" x="0" y="4" width="18" height="30" rx="1"></rect>
            <polygon id="Rectangle" fill="#000000" points="2 33 16 33 15 44 3 44"></polygon>
            <line x1="2.5" y1="33.5" x2="15.5" y2="33.5" id="Line-3" stroke="#2C2C2C" stroke-linecap="square"></line>
            <rect id="Rectangle" fill="#D8D8D8" x="1" y="0" width="16" height="4"></rect>
        </g>
        <rect id="Rectangle" fill="#D8D8D8" x="340" y="430" width="150" height="140" rx="10"></rect>
        <g id="Group" transform="translate(383.000000, 357.000000)" fill="#000000">
            <path d="M4.74965831,58.5673574 C5.3563129,58.4497103 5.8836169,58.0744904 5.23351328,57.198782 C4.79575916,56.6175821 3.94733995,56.450561 4.35449616,55.5699669 L11.771967,58.5668196 C11.4290664,59.4693015 10.7361643,58.9952502 10.0040583,59.1252091 C8.89559797,59.3263035 9.05704348,59.9615132 9.40524771,60.4471493 C9.75080012,60.9376711 10.5794467,62.5358771 9.06138228,63.2202625 C7.64327108,63.8602859 6.87801153,63.8064651 5.27549692,63.9682786 C4.24393933,62.7886812 3.62589902,62.2019089 3.06779311,60.8040195 C2.46623817,59.2957138 4.1403519,58.687545 4.74965831,58.5673574 Z" id="Fill-1734-Copy" transform="translate(7.355689, 59.769123) rotate(-22.000000) translate(-7.355689, -59.769123) "></path>
            <path d="M1,0 L13,0 C13.5522847,-1.01453063e-16 14,0.44771525 14,1 L14,33 C14,33.5522847 13.5522847,34 13,34 L12,34 L12,34 L12,35 L2,35 L2,34 L1,34 C0.44771525,34 6.76353751e-17,33.5522847 0,33 L0,1 C-6.76353751e-17,0.44771525 0.44771525,1.01453063e-16 1,0 Z" id="Rectangle"></path>
            <rect id="Rectangle" x="3" y="36" width="8" height="16"></rect>
            <rect id="Rectangle" x="3" y="53" width="8" height="3"></rect>
        </g>
        <g id="Group" transform="translate(403.000000, 357.000000)" fill="#000000">
            <path d="M4.74965831,58.5673574 C5.3563129,58.4497103 5.8836169,58.0744904 5.23351328,57.198782 C4.79575916,56.6175821 3.94733995,56.450561 4.35449616,55.5699669 L11.771967,58.5668196 C11.4290664,59.4693015 10.7361643,58.9952502 10.0040583,59.1252091 C8.89559797,59.3263035 9.05704348,59.9615132 9.40524771,60.4471493 C9.75080012,60.9376711 10.5794467,62.5358771 9.06138228,63.2202625 C7.64327108,63.8602859 6.87801153,63.8064651 5.27549692,63.9682786 C4.24393933,62.7886812 3.62589902,62.2019089 3.06779311,60.8040195 C2.46623817,59.2957138 4.1403519,58.687545 4.74965831,58.5673574 Z" id="Fill-1734-Copy" transform="translate(7.355689, 59.769123) rotate(-22.000000) translate(-7.355689, -59.769123) "></path>
            <path d="M1,0 L13,0 C13.5522847,-1.01453063e-16 14,0.44771525 14,1 L14,33 C14,33.5522847 13.5522847,34 13,34 L12,34 L12,34 L12,35 L2,35 L2,34 L1,34 C0.44771525,34 6.76353751e-17,33.5522847 0,33 L0,1 C-6.76353751e-17,0.44771525 0.44771525,1.01453063e-16 1,0 Z" id="Rectangle"></path>
            <rect id="Rectangle" x="3" y="36" width="8" height="16"></rect>
            <rect id="Rectangle" x="3" y="53" width="8" height="3"></rect>
        </g>
        <g id="icons/Phones" transform="translate(519.000000, 337.000000)" fill="#000000">
            <path d="M4.18712639,-0.547930404 C3.50652329,-0.547930404 2.95458792,-1.08705189 2.95458792,-1.75143075 C2.95458792,-2.41580961 3.50652329,-2.95458792 4.18712639,-2.95458792 L9.54054789,-2.95458792 L9.56550802,-2.95458792 L9.56550802,-2.94978353 C10.7084009,-2.95081304 21.0253737,-2.96042183 21.0454121,9.0121245 L21.0454121,9.04541208 L21.0454121,9.07835649 C21.0253737,21.051246 10.7084009,21.0416372 9.56550802,21.0406077 L9.56550802,21.0454121 L9.54054789,21.0454121 L4.18712639,21.0454121 C3.50652329,21.0454121 2.95458792,20.5066338 2.95458792,19.8422549 C2.95458792,19.1775329 3.50652329,18.6387546 4.18712639,18.6387546 L9.54054789,18.6387546 L9.56550802,18.6387546 L9.56550802,18.643559 C10.4633698,18.6445885 18.5799836,18.6524814 18.5799836,9.04541208 C18.5799836,-0.56165724 10.4633698,-0.554107481 9.56550802,-0.553077968 L9.56550802,-0.547930404 L9.54054789,-0.547930404 L4.18712639,-0.547930404 Z" id="Fill-6494" transform="translate(12.000000, 9.045412) rotate(-90.000000) translate(-12.000000, -9.045412) "></path>
            <path d="M11.5211472,15.0762194 L11.5211472,18.3813528 C11.5211472,18.8752528 11.1342046,19.2782194 10.6607275,19.2782194 L1.83913914,19.2782194 C1.36531031,19.2782194 0.978719444,18.8752528 0.978719444,18.3813528 L0.978719444,15.0762194 C0.978719444,14.5826861 1.36531031,14.1793528 1.83913914,14.1793528 L10.6607275,14.1793528 C11.1342046,14.1793528 11.5211472,14.5826861 11.5211472,15.0762194" id="Fill-6495" transform="translate(6.249933, 16.728786) rotate(-90.000000) translate(-6.249933, -16.728786) "></path>
            <path d="M23.6715639,15.0760361 L23.6715639,18.3811694 C23.6715639,18.8750694 23.2846213,19.2784028 22.8111442,19.2784028 L13.9895558,19.2784028 C13.515727,19.2784028 13.1291361,18.8750694 13.1291361,18.3811694 L13.1291361,15.0760361 C13.1291361,14.5825028 13.515727,14.1791694 13.9895558,14.1791694 L22.8111442,14.1791694 C23.2846213,14.1791694 23.6715639,14.5825028 23.6715639,15.0760361" id="Fill-6496" transform="translate(18.400350, 16.728786) rotate(-90.000000) translate(-18.400350, -16.728786) "></path>
        </g>
        <g id="icons/AGuitar" transform="translate(237.000000, 294.000000)" fill="#000000" fill-rule="nonzero">
            <path d="M23.7917545,57.2735294 C24.0694152,57.5535294 24.0694152,58.0029412 23.7917545,58.2805882 L22.2810922,59.7935294 C22.0034315,60.0688235 21.5492916,60.0688235 21.273984,59.7935294 L12.2100103,50.73 C11.9299966,50.45 11.9299966,49.9982353 12.2100103,49.7205882 L13.7206726,48.21 C13.9983333,47.93 14.4501201,47.93 14.7277808,48.21 L23.7917545,57.2735294 Z M72,6.70103411 C72,7.4205896 71.7277511,8.12903226 71.1860312,8.67078253 L70.0164719,9.84040747 L70.4720722,10.2960333 C71.0415726,10.8683439 71.0415726,11.7907084 70.4720722,12.363019 C70.1887111,12.646396 69.8136743,12.7880846 69.4386374,12.7880846 C69.0636006,12.7880846 68.6913419,12.6491743 68.4052026,12.363019 L67.9496024,11.9073931 L67.2384214,12.618614 L67.6940217,13.0742399 C68.2635221,13.6465504 68.2635221,14.568915 67.6940217,15.1412255 C67.4106606,15.4246026 67.0356238,15.5662911 66.6605869,15.5662911 C66.2855501,15.5662911 65.9132913,15.4273808 65.6271521,15.1412255 L65.1715519,14.6855996 L64.6214979,15.2356845 C63.9019828,15.95524 62.8935505,16.1497145 61.9767938,15.9163451 L49.8728277,28.0209909 C53.0564736,31.6604414 57.0263078,38.0280908 52.8953467,44.0623553 C50.0784035,48.1824356 45.7168642,47.3350826 43.2443992,49.9049236 C40.4635707,52.7998148 42.6887891,60.7482636 35.418631,68.0188301 C32.6822512,70.7553635 29.5569444,72 26.2482863,72 C20.7560804,72 14.7582694,68.568915 9.20772449,62.7958018 C-0.0487397847,53.8972064 -3.28794667,43.8484334 3.98221149,36.5806452 C11.2523697,29.3073005 19.194816,31.5326439 22.0867666,28.7516592 C24.6620194,26.2790554 23.870275,21.9728353 27.9873459,19.1585121 C29.8430836,17.8888717 31.7293799,17.3804599 33.5545591,17.3804599 C37.6632958,17.3804599 41.469225,19.9391881 43.9778046,22.1311931 L56.0845487,10.0237691 C55.8484144,9.10418274 56.045656,8.09847199 56.765171,7.3789165 L57.315225,6.82883161 L56.8596248,6.37320574 C56.2901244,5.8008952 56.2901244,4.87853064 56.8596248,4.3062201 C57.4291251,3.73668776 58.356994,3.73668776 58.9264943,4.3062201 L59.3820946,4.76184596 L60.0932755,4.0506251 L59.6376753,3.59499923 C59.0681749,3.02268869 59.0681749,2.10032412 59.6376753,1.52801358 C60.2071756,0.958481247 61.1350445,0.958481247 61.7045448,1.52801358 L62.1601451,1.98363945 L63.3297044,0.814014508 C63.8714242,0.272264238 64.5826052,0 65.2937861,0 C66.0133012,0 66.721704,0.272264238 67.2606458,0.814014508 L71.1888093,4.74239852 C71.7277511,5.28137058 72,5.98981324 72,6.70103411 Z M48.2863702,29.7446178 L38.7262012,39.3070399 C38.7461241,39.5148568 38.7888162,39.71698 38.7888162,39.9304905 C38.7888162,43.6484194 35.7776048,46.6603404 32.0605519,46.6603404 C28.343499,46.6603404 25.3322877,43.6484194 25.3322877,39.9304905 C25.3322877,36.2125615 28.343499,33.2006405 32.0605519,33.2006405 C32.2768582,33.2006405 32.48178,33.2433426 32.6952402,33.2632703 L42.2468707,23.7065417 C40.0354235,21.821956 37.1266731,20 34.3915369,20 C33.1733909,20 32.0434751,20.367238 30.9363284,21.1244885 C29.6441829,22.0069984 29.225801,23.0631635 28.5427285,25.0046854 C27.9478862,26.6985351 27.2050449,28.8080185 25.400595,30.5388767 C23.4083002,32.4576241 20.798394,32.9301939 18.0347964,33.4312318 C14.5682034,34.060376 10.6405365,34.7720776 6.91209908,38.5042406 C4.92834267,40.4941581 3.97488729,42.6748117 4.00050251,45.182848 C4.04319454,49.4815254 6.95763725,54.6313979 12.2087572,59.6759386 C12.2486031,59.712947 12.2827567,59.7499555 12.3197564,59.7898108 C17.4086466,65.0848704 22.5886132,68 26.9062006,68 C29.3738001,68 31.5254785,67.0463199 33.4836197,65.0877172 C37.2120571,61.3612479 37.923591,57.4269616 38.5554331,53.9567048 C39.0563529,51.192456 39.5288114,48.5819346 41.4471067,46.5863235 C43.1946338,44.7672143 45.3292354,44.0384319 47.042609,43.4548366 C48.9893656,42.7915308 50.048128,42.3844375 50.9190455,41.1119151 C53.5972589,37.1975565 50.7539696,32.6113516 48.2863702,29.7446178 Z M57.5749183,7.72920473 L63.7299481,1.5747668 C64.0900173,1.21473219 64.0900173,0.630060583 63.7299481,0.270025964 C63.3698788,-0.0900086547 62.785151,-0.0900086547 62.4250817,0.270025964 L56.2700519,6.42446389 C55.9099827,6.78449851 55.9099827,7.36917011 56.2700519,7.72920473 C56.4516253,7.91076065 56.6855164,8 56.9224851,8 C57.1625313,8 57.3964224,7.91076065 57.5749183,7.72920473 Z M71.7288319,8.27002596 C71.3688147,7.90999135 70.7841713,7.90999135 70.424154,8.27002596 L64.2700129,14.4244639 C63.9099957,14.7844985 63.9099957,15.3691701 64.2700129,15.7292047 C64.4515601,15.9107607 64.6854175,16 64.9223519,16 C65.1592863,16 65.3931437,15.9107607 65.5746908,15.7292047 L71.7288319,9.5747668 C72.0919263,9.21473219 72.0888492,8.63006058 71.7288319,8.27002596 Z" id="Shape"></path>
        </g>
        <g id="icons/6.35mm-TS-jack-" transform="translate(316.079220, 520.637213) scale(-1, 1) rotate(30.000000) translate(-316.079220, -520.637213) translate(309.079220, 487.978773)" fill="#000000">
            <path d="M4.74965831,58.5673574 C5.3563129,58.4497103 5.8836169,58.0744904 5.23351328,57.198782 C4.79575916,56.6175821 3.94733995,56.450561 4.35449616,55.5699669 L11.771967,58.5668196 C11.4290664,59.4693015 10.7361643,58.9952502 10.0040583,59.1252091 C8.89559797,59.3263035 9.05704348,59.9615132 9.40524771,60.4471493 C9.75080012,60.9376711 10.5794467,62.5358771 9.06138228,63.2202625 C7.64327108,63.8602859 6.87801153,63.8064651 5.27549692,63.9682786 C4.24393933,62.7886812 3.62589902,62.2019089 3.06779311,60.8040195 C2.46623817,59.2957138 4.1403519,58.687545 4.74965831,58.5673574 Z" id="Fill-1734-Copy" transform="translate(7.355689, 59.769123) rotate(-22.000000) translate(-7.355689, -59.769123) "></path>
            <path d="M1,0 L13,0 C13.5522847,-1.01453063e-16 14,0.44771525 14,1 L14,33 C14,33.5522847 13.5522847,34 13,34 L12,34 L12,34 L12,35 L2,35 L2,34 L1,34 C0.44771525,34 8.53327637e-14,33.5522847 8.52651283e-14,33 L8.52651283e-14,1 C8.51974929e-14,0.44771525 0.44771525,1.01453063e-16 1,0 Z" id="Rectangle"></path>
            <rect id="Rectangle" x="3" y="36" width="8" height="18"></rect>
        </g>
        <text id="音源盒子" font-family="PingFangSC-Medium, PingFang SC" font-size="16" font-weight="400" letter-spacing="-0.00109511113" fill="#000000">
            <tspan x="386" y="505">音源盒子</tspan>
        </text>
        <text id="S/PDIF" font-family="Futura-Medium, Futura" font-size="12" font-weight="400" letter-spacing="-0.030043166" fill="#000000">
            <tspan x="469.567669" y="201">S/PDIF </tspan>
        </text>
        <g id="spdif-(2)" transform="translate(472.000000, 217.000000)" fill="#000000" fill-rule="nonzero">
            <path d="M29.9125,0 L2.0875,0 C0.9375,0 0,0.9375 0,2.0875 L0,29.9125 C0,31.0625 0.9375,32 2.0875,32 L29.9125,32 C31.0625,32 32,31.0625 32,29.9125 L32,2.0875 C32,0.9375 31.0625,0 29.9125,0 Z M11.465625,27.834375 L11.465625,9.75625 C11.465625,9.371875 11.778125,9.059375 12.1625,9.059375 L19.28125,9.059375 C19.665625,9.059375 19.978125,9.371875 19.978125,9.75625 L19.978125,27.834375 L11.465625,27.834375 Z M19.28125,7.66875 L12.1625,7.66875 C11.0125,7.66875 10.075,8.60625 10.075,9.75625 L10.075,27.9 L6.5625,27.9 C5.903125,27.9 5.365625,27.35625 5.365625,26.6875 L5.365625,24.490625 L4.171875,22.428125 L4.171875,1.390625 L27.825,1.390625 L27.825,22.41875 L26.915625,23.94375 C26.73125,24.25625 26.634375,24.6125 26.634375,24.978125 L26.634375,26.6875 C26.634375,27.35625 26.096875,27.9 25.4375,27.9 L21.36875,27.9 L21.36875,9.75625 C21.36875,8.60625 20.43125,7.66875 19.28125,7.66875 Z M30.609375,29.9125 C30.609375,30.296875 30.296875,30.609375 29.9125,30.609375 L2.0875,30.609375 C1.703125,30.609375 1.390625,30.296875 1.390625,29.9125 L1.390625,2.0875 C1.390625,1.703125 1.703125,1.390625 2.0875,1.390625 L2.78125,1.390625 L2.78125,22.509375 C2.78125,22.69375 2.83125,22.88125 2.925,23.05 L3.971875,24.8625 L3.971875,26.6875 C3.971875,28.125 5.134375,29.290625 6.559375,29.290625 L25.434375,29.290625 C26.8625,29.290625 28.021875,28.121875 28.021875,26.6875 L28.021875,24.978125 C28.021875,24.8625 28.053125,24.75 28.109375,24.65625 L29.059375,23.0625 C29.159375,22.896875 29.2125,22.703125 29.2125,22.50625 L29.2125,1.390625 L29.909375,1.390625 C30.29375,1.390625 30.60625,1.703125 30.60625,2.0875 L30.60625,29.9125 L30.609375,29.9125 Z" id="Shape"></path>
        </g>
        <text id="音源制作场景" font-family="PingFangSC-Medium, PingFang SC" font-size="23" font-weight="400" letter-spacing="-0.0575827349" fill="#000000">
            <tspan x="222.172748" y="38">音源制作场景</tspan>
        </text>
        <rect id="Rectangle" stroke="#000000" x="0.5" y="0.5" width="589" height="629"></rect>
    </g>
</svg>